<mxfile host="app.diagrams.net" modified="2022-05-13T19:23:15.799Z" agent="5.0 (Windows NT 10.0; Win64; x64) AppleWebKit/537.36 (KHTML, like Gecko) Chrome/101.0.4951.64 Safari/537.36" etag="WSfye9OKBkf-ETCdk0i8" version="18.0.3" type="github">
  <diagram id="nTG36DUjXHatF_Kk6Dry" name="Page-1">
    <mxGraphModel dx="868" dy="1550" grid="1" gridSize="10" guides="1" tooltips="1" connect="1" arrows="1" fold="1" page="1" pageScale="1" pageWidth="850" pageHeight="1100" math="0" shadow="0">
      <root>
        <mxCell id="0" />
        <mxCell id="1" parent="0" />
        <mxCell id="HpRi0M6CeLyrX-J8M1mh-7" value="" style="whiteSpace=wrap;html=1;aspect=fixed;" vertex="1" parent="1">
          <mxGeometry x="170" y="-60" width="410" height="410" as="geometry" />
        </mxCell>
        <mxCell id="HpRi0M6CeLyrX-J8M1mh-1" value="Gestion des Prix" style="ellipse;whiteSpace=wrap;html=1;" vertex="1" parent="1">
          <mxGeometry x="320" y="35" width="230" height="70" as="geometry" />
        </mxCell>
        <mxCell id="HpRi0M6CeLyrX-J8M1mh-2" value="gestion des Couts" style="ellipse;whiteSpace=wrap;html=1;" vertex="1" parent="1">
          <mxGeometry x="322.5" y="160" width="225" height="80" as="geometry" />
        </mxCell>
        <mxCell id="HpRi0M6CeLyrX-J8M1mh-3" value="Client" style="shape=umlActor;verticalLabelPosition=bottom;verticalAlign=top;html=1;outlineConnect=0;" vertex="1" parent="1">
          <mxGeometry x="100" y="40" width="30" height="60" as="geometry" />
        </mxCell>
        <mxCell id="HpRi0M6CeLyrX-J8M1mh-4" value="Transporteur&lt;br&gt;" style="shape=umlActor;verticalLabelPosition=bottom;verticalAlign=top;html=1;outlineConnect=0;" vertex="1" parent="1">
          <mxGeometry x="100" y="170" width="30" height="60" as="geometry" />
        </mxCell>
        <mxCell id="HpRi0M6CeLyrX-J8M1mh-5" value="" style="endArrow=none;html=1;rounded=0;entryX=0;entryY=0.5;entryDx=0;entryDy=0;" edge="1" parent="1" source="HpRi0M6CeLyrX-J8M1mh-3" target="HpRi0M6CeLyrX-J8M1mh-1">
          <mxGeometry width="50" height="50" relative="1" as="geometry">
            <mxPoint x="400" y="160" as="sourcePoint" />
            <mxPoint x="450" y="110" as="targetPoint" />
          </mxGeometry>
        </mxCell>
        <mxCell id="HpRi0M6CeLyrX-J8M1mh-6" value="" style="endArrow=none;html=1;rounded=0;" edge="1" parent="1" source="HpRi0M6CeLyrX-J8M1mh-4" target="HpRi0M6CeLyrX-J8M1mh-2">
          <mxGeometry width="50" height="50" relative="1" as="geometry">
            <mxPoint x="400" y="160" as="sourcePoint" />
            <mxPoint x="450" y="110" as="targetPoint" />
          </mxGeometry>
        </mxCell>
      </root>
    </mxGraphModel>
  </diagram>
</mxfile>
